<?xml version="1.0" encoding="UTF-8" standalone="no"?>
<!-- Created with Inkscape (http://www.inkscape.org/) -->

<svg
   xmlns:dc="http://purl.org/dc/elements/1.1/"
   xmlns:cc="http://creativecommons.org/ns#"
   xmlns:rdf="http://www.w3.org/1999/02/22-rdf-syntax-ns#"
   xmlns:svg="http://www.w3.org/2000/svg"
   xmlns="http://www.w3.org/2000/svg"
   xmlns:sodipodi="http://sodipodi.sourceforge.net/DTD/sodipodi-0.dtd"
   xmlns:inkscape="http://www.inkscape.org/namespaces/inkscape"
   version="1.1"
   id="svg2"
   xml:space="preserve"
   width="48mm"
   height="53mm"
   viewBox="0 0 181.41732 200.31496"
   sodipodi:docname="sbn_hex.svg"
   inkscape:export-filename="C:\Users\Finn\Desktop\nzffdr_hex.png"
   inkscape:export-xdpi="96.050003"
   inkscape:export-ydpi="96.050003"
   inkscape:version="0.92.4 (5da689c313, 2019-01-14)"><metadata
     id="metadata8"><rdf:RDF><cc:Work
         rdf:about=""><dc:format>image/svg+xml</dc:format><dc:type
           rdf:resource="http://purl.org/dc/dcmitype/StillImage" /><dc:title /></cc:Work></rdf:RDF></metadata><defs
     id="defs6"><clipPath
       clipPathUnits="userSpaceOnUse"
       id="clipPath22"><path
         d="m 441.089,95.2628 h 109.0981 v 45.4365 H 441.089 Z"
         id="path20"
         inkscape:connector-curvature="0" /></clipPath></defs><sodipodi:namedview
     pagecolor="#ffffff"
     bordercolor="#666666"
     borderopacity="1"
     objecttolerance="10"
     gridtolerance="10"
     guidetolerance="10"
     inkscape:pageopacity="0"
     inkscape:pageshadow="2"
     inkscape:window-width="1920"
     inkscape:window-height="986"
     id="namedview4"
     showgrid="false"
     inkscape:zoom="4"
     inkscape:cx="75.676055"
     inkscape:cy="105.00812"
     inkscape:window-x="-11"
     inkscape:window-y="-11"
     inkscape:window-maximized="1"
     inkscape:current-layer="g10"
     inkscape:object-nodes="false"
     units="mm" /><g
     id="g10"
     inkscape:groupmode="layer"
     inkscape:label="nzelande02"
     transform="matrix(1.3333333,0,0,-1.3333333,0,200.31494)"><g
   id="g922"
   transform="matrix(0.99552758,0,0,-0.99999308,35.556794,259.01239)"><g
     id="g6276"><path
       id="path908"
       transform="matrix(0.7533694,0,0,0.75000521,-204.05372,-136.96173)"
       d="m 317.48828,333.78125 -79.64062,46.08008 v 92.14648 l 79.64062,46.08008 79.64258,-46.08008 v -92.14648 z"
       style="fill:#698c34;fill-opacity:1;stroke-width:1.33034372"
       inkscape:connector-curvature="0" /><path
       style="opacity:1;fill:#050507;stroke-width:0.00852305;stroke-miterlimit:1;stroke-dasharray:none;stroke:#000000;stroke-opacity:1"
       inkscape:connector-curvature="0"
       d="m 32.632916,117.70766 57.5,33.119 v 66.221 l -57.5,33.119 -57.499998,-33.119 v -66.221 z m 0,-5.771 -62.499998,36 v 72.001 l 62.499998,36 62.5,-36 v -72.001 z"
       id="path910" /></g></g><text
   xml:space="preserve"
   style="font-style:normal;font-variant:normal;font-weight:bold;font-stretch:normal;font-size:28px;line-height:1.25;font-family:serif;-inkscape-font-specification:'serif, Bold';font-variant-ligatures:normal;font-variant-caps:normal;font-variant-numeric:normal;font-feature-settings:normal;text-align:start;letter-spacing:0px;word-spacing:0px;writing-mode:lr-tb;text-anchor:start;fill:#04394b;fill-opacity:1;stroke:none;stroke-width:0.76302731"
   x="52.114574"
   y="-96.046135"
   id="text6281"
   transform="scale(1,-1)"><tspan
     sodipodi:role="line"
     id="tspan6279"
     x="52.114574"
     y="-96.046135"
     style="font-style:normal;font-variant:normal;font-weight:bold;font-stretch:normal;font-size:28px;font-family:serif;-inkscape-font-specification:'serif, Bold';font-variant-ligatures:normal;font-variant-caps:normal;font-variant-numeric:normal;font-feature-settings:normal;text-align:start;writing-mode:lr-tb;text-anchor:start;fill:#04394b;fill-opacity:1;stroke-width:0.76302731">SBN</tspan></text>




<g
   transform="matrix(1.142026,0,0,1.142026,160.02863,18.525615)"
   id="g4674"><g
     transform="translate(-125.1695,0.59322037)"
     id="g18"><path
       inkscape:connector-curvature="0"
       id="path20-1"
       style="fill:none;stroke:#000000;stroke-width:1.07000005;stroke-linecap:butt;stroke-linejoin:round;stroke-miterlimit:1;stroke-dasharray:none;stroke-opacity:1"
       d="M 51.54,3.22 51.38,3.35 51.21,3.48 51.05,3.61 50.89,3.74 50.73,3.87 50.56,4 50.4,4.13 50.24,4.26 50.07,4.39 49.91,4.52 49.75,4.65 49.59,4.78 49.42,4.91 49.26,5.04 49.1,5.17 48.94,5.3 48.77,5.43 48.61,5.56 48.45,5.69 48.29,5.82 48.12,5.95 47.96,6.08 47.8,6.21 47.63,6.34 47.47,6.47 47.31,6.61 47.15,6.74 46.98,6.87 46.82,7 46.66,7.13 46.5,7.26 46.33,7.39 46.17,7.52 46.01,7.65 45.84,7.78 45.68,7.91 45.52,8.04 45.36,8.17 45.19,8.3 45.03,8.43 44.87,8.56 44.71,8.69 44.54,8.82 44.38,8.95 44.22,9.08 44.06,9.21 43.89,9.34 43.73,9.47 43.57,9.6 43.4,9.73 l -0.16,0.13 -0.16,0.13 -0.16,0.13 -0.17,0.13 -0.16,0.13 -0.16,0.13 -0.16,0.13 -0.17,0.13 -0.16,0.13 -0.16,0.13 -0.16,0.13 -0.17,0.13 -0.16,0.13 -0.16,0.13 -0.17,0.13 -0.16,0.13 -0.16,0.13 -0.16,0.13 -0.17,0.13 -0.16,0.13 -0.16,0.13 -0.16,0.13 -0.17,0.13 -0.16,0.13 -0.16,0.13 -0.17,0.13 -0.16,0.13 -0.16,0.13 -0.16,0.13 -0.17,0.13 -0.16,0.13 -0.16,0.13 -0.16,0.13 -0.17,0.13 -0.16,0.13 -0.16,0.13 -0.16,0.13 -0.17,0.13 -0.16,0.13 -0.16,0.13 -0.17,0.13 -0.16,0.13 -0.16,0.14 -0.16,0.13 -0.17,0.13 -0.16,0.13 -0.16,0.13 -0.16,0.13 -0.17,0.13" /><path
       inkscape:connector-curvature="0"
       id="path22"
       style="fill:none;stroke:#000000;stroke-width:1.07000005;stroke-linecap:butt;stroke-linejoin:round;stroke-miterlimit:1;stroke-dasharray:none;stroke-opacity:1"
       d="m 51.54,3.22 0.16,0.13 0.16,0.13 0.17,0.13 0.16,0.13 0.16,0.13 0.17,0.13 0.16,0.13 0.16,0.13 0.16,0.13 0.17,0.13 0.16,0.13 0.16,0.13 0.16,0.13 0.17,0.13 0.16,0.13 0.16,0.13 0.16,0.13 0.17,0.13 0.16,0.13 0.16,0.13 0.17,0.13 0.16,0.13 0.16,0.13 0.16,0.13 0.17,0.13 0.16,0.14 0.16,0.13 0.16,0.13 0.17,0.13 0.16,0.13 0.16,0.13 0.16,0.13 0.17,0.13 0.16,0.13 0.16,0.13 0.17,0.13 0.16,0.13 0.16,0.13 0.16,0.13 0.17,0.13 0.16,0.13 0.16,0.13 0.16,0.13 0.17,0.13 0.16,0.13 0.16,0.13 0.17,0.13 0.16,0.13 0.16,0.13 0.16,0.13 0.17,0.13 0.16,0.13 0.16,0.13 0.16,0.13 0.17,0.13 0.16,0.13 0.16,0.13 0.16,0.13 0.17,0.13 0.16,0.13 0.16,0.13 0.17,0.13 0.16,0.13 0.16,0.13 0.16,0.13 0.17,0.13 0.16,0.13 0.16,0.13 0.16,0.13 0.17,0.13 0.16,0.13 0.16,0.13 0.17,0.13 0.16,0.13 0.16,0.13 0.16,0.13 0.17,0.13 0.16,0.13 0.16,0.13 0.16,0.13 0.17,0.13 0.16,0.13 0.16,0.13 0.16,0.13 0.17,0.13 0.16,0.13 0.16,0.13 0.17,0.13 0.16,0.13 0.16,0.13 0.16,0.13 0.17,0.13 0.16,0.14 0.16,0.13 0.16,0.13 0.17,0.13 0.16,0.13 0.16,0.13 0.16,0.13" /><path
       inkscape:connector-curvature="0"
       id="path24"
       style="fill:none;stroke:#000000;stroke-width:1.07000005;stroke-linecap:butt;stroke-linejoin:round;stroke-miterlimit:1;stroke-dasharray:none;stroke-opacity:1"
       d="m 35.43,16.11 v 0.13 0.13 0.13 0.13 0.13 0.13 0.13 0.13 0.13 0.13 0.13 0.13 0.13 0.13 0.13 0.13 0.13 0.13 0.13 0.13 0.13 0.13 0.13 0.13 0.13 0.13 0.13 0.13 0.13 0.13 0.13 0.13 0.13 0.13 0.13 0.13 0.13 0.13 0.13 0.13 0.13 0.13 0.13 0.13 0.13 0.13 0.13 0.13 0.13 0.13 0.13 0.13 0.13 0.13 0.13 0.13 0.13 0.13 0.13 0.13 0.14 0.13 0.13 0.13 0.13 0.13 0.13 0.13 0.13 0.13 0.13 0.13 0.13 0.13 0.13 0.13 0.13 0.13 0.13 0.13 0.13 0.13 0.13 0.13 0.13 0.13 0.13 0.13 0.13 0.13 0.13 0.13 0.13 0.13 0.13 0.13 0.13 0.13 0.13" /><path
       inkscape:connector-curvature="0"
       id="path26"
       style="fill:none;stroke:#000000;stroke-width:1.07000005;stroke-linecap:butt;stroke-linejoin:round;stroke-miterlimit:1;stroke-dasharray:none;stroke-opacity:1"
       d="m 67.64,16.11 v 0.13 0.13 0.13 0.13 0.13 0.13 0.13 0.13 0.13 0.13 0.13 0.13 0.13 0.13 0.13 0.13 0.13 0.13 0.13 0.13 0.13 0.13 0.13 0.13 0.13 0.13 0.13 0.13 0.13 0.13 0.13 0.13 0.13 0.13 0.13 0.13 0.13 0.13 0.13 0.13 0.13 0.13 0.13 0.13 0.13 0.13 0.13 0.13 0.13 0.13 0.13 0.13 0.13 0.13 0.13 0.13 0.13 0.13 0.13 0.13 0.14 0.13 0.13 0.13 0.13 0.13 0.13 0.13 0.13 0.13 0.13 0.13 0.13 0.13 0.13 0.13 0.13 0.13 0.13 0.13 0.13 0.13 0.13 0.13 0.13 0.13 0.13 0.13 0.13 0.13 0.13 0.13 0.13 0.13 0.13 0.13 0.13 0.13 0.13" /><path
       inkscape:connector-curvature="0"
       id="path28"
       style="fill:none;stroke:#000000;stroke-width:1.07000005;stroke-linecap:butt;stroke-linejoin:round;stroke-miterlimit:1;stroke-dasharray:none;stroke-opacity:1"
       d="m 35.43,28.99 0.17,0.13 0.16,0.13 0.16,0.13 0.16,0.13 0.17,0.13 0.16,0.13 0.16,0.13 0.16,0.13 0.17,0.13 0.16,0.13 0.16,0.13 0.17,0.13 0.16,0.13 0.16,0.13 0.16,0.13 0.17,0.13 0.16,0.13 0.16,0.13 0.16,0.13 0.17,0.13 0.16,0.13 0.16,0.13 0.16,0.13 0.17,0.13 0.16,0.13 0.16,0.13 0.17,0.13 0.16,0.13 0.16,0.14 0.16,0.13 0.17,0.13 0.16,0.13 0.16,0.13 0.16,0.13 0.17,0.13 0.16,0.13 0.16,0.13 0.17,0.13 0.16,0.13 0.16,0.13 0.16,0.13 0.17,0.13 0.16,0.13 0.16,0.13 0.16,0.13 0.17,0.13 0.16,0.13 0.16,0.13 0.16,0.13 0.17,0.13 0.16,0.13 0.16,0.13 0.17,0.13 0.16,0.13 0.16,0.13 0.16,0.13 0.17,0.13 0.16,0.13 0.16,0.13 0.16,0.13 0.17,0.13 0.16,0.13 0.16,0.13 0.16,0.13 0.17,0.13 0.16,0.13 0.16,0.13 0.17,0.13 0.16,0.13 0.16,0.13 0.16,0.13 0.17,0.13 0.16,0.13 0.16,0.13 0.16,0.13 0.17,0.13 0.16,0.13 0.16,0.13 0.17,0.13 0.16,0.13 0.16,0.13 0.16,0.13 0.17,0.13 0.16,0.13 0.16,0.13 0.16,0.13 0.17,0.13 0.16,0.13 0.16,0.13 0.16,0.13 0.17,0.13 0.16,0.13 0.16,0.13 0.17,0.13 0.16,0.13 0.16,0.14 0.16,0.13 0.17,0.13 0.16,0.13" /><path
       inkscape:connector-curvature="0"
       id="path30"
       style="fill:none;stroke:#000000;stroke-width:1.07000005;stroke-linecap:butt;stroke-linejoin:round;stroke-miterlimit:1;stroke-dasharray:none;stroke-opacity:1"
       d="m 35.43,28.99 -0.16,0.13 -0.16,0.13 -0.16,0.13 -0.17,0.13 -0.16,0.13 -0.16,0.13 -0.17,0.13 -0.16,0.13 -0.16,0.13 -0.16,0.13 -0.17,0.13 -0.16,0.13 -0.16,0.13 -0.16,0.13 -0.17,0.13 -0.16,0.13 -0.16,0.13 -0.17,0.13 -0.16,0.13 -0.16,0.13 -0.16,0.13 -0.17,0.13 -0.16,0.13 -0.16,0.13 -0.16,0.13 -0.17,0.13 -0.16,0.13 -0.16,0.13 -0.16,0.14 -0.17,0.13 -0.16,0.13 -0.16,0.13 -0.17,0.13 -0.16,0.13 -0.16,0.13 -0.16,0.13 -0.17,0.13 -0.16,0.13 -0.16,0.13 -0.16,0.13 -0.17,0.13 -0.16,0.13 -0.16,0.13 -0.17,0.13 -0.16,0.13 -0.16,0.13 -0.16,0.13 -0.17,0.13 -0.16,0.13 -0.16,0.13 -0.16,0.13 -0.17,0.13 -0.16,0.13 -0.16,0.13 -0.16,0.13 -0.17,0.13 -0.16,0.13 -0.16,0.13 -0.17,0.13 -0.16,0.13 -0.16,0.13 -0.16,0.13 -0.17,0.13 -0.16,0.13 -0.16,0.13 -0.16,0.13 -0.17,0.13 -0.16,0.13 -0.16,0.13 -0.16,0.13 -0.17,0.13 -0.16,0.13 -0.16,0.13 -0.17,0.13 -0.16,0.13 -0.16,0.13 -0.16,0.13 -0.17,0.13 -0.16,0.13 -0.16,0.13 -0.16,0.13 -0.17,0.13 -0.16,0.13 -0.16,0.13 -0.17,0.13 -0.16,0.13 -0.16,0.13 -0.16,0.13 -0.17,0.13 -0.16,0.13 -0.16,0.13 -0.16,0.13 -0.17,0.13 -0.16,0.13 -0.16,0.13 -0.16,0.14 -0.17,0.13 -0.16,0.13 -0.16,0.13" /><path
       inkscape:connector-curvature="0"
       id="path32"
       style="fill:none;stroke:#000000;stroke-width:1.07000005;stroke-linecap:butt;stroke-linejoin:round;stroke-miterlimit:1;stroke-dasharray:none;stroke-opacity:1"
       d="m 19.33,41.88 -0.17,0.13 -0.16,0.13 -0.16,0.13 -0.16,0.13 -0.17,0.13 -0.16,0.13 -0.16,0.13 -0.16,0.13 -0.17,0.13 -0.16,0.13 -0.16,0.13 -0.17,0.13 -0.16,0.13 -0.16,0.13 -0.16,0.13 -0.17,0.13 -0.16,0.13 -0.16,0.13 -0.16,0.13 -0.17,0.13 -0.16,0.13 -0.16,0.13 -0.16,0.13 -0.17,0.13 -0.16,0.13 -0.16,0.13 -0.17,0.13 -0.16,0.13 -0.16,0.13 -0.16,0.13 -0.17,0.13 -0.16,0.13 -0.16,0.13 -0.16,0.13 -0.17,0.13 -0.16,0.13 -0.16,0.13 -0.16,0.13 -0.17,0.13 -0.16,0.13 -0.16,0.13 -0.17,0.13 -0.16,0.13 -0.16,0.13 -0.16,0.13 -0.17,0.13 -0.16,0.13 -0.16,0.13 -0.16,0.13 -0.17,0.13 -0.16,0.13 -0.16,0.13 -0.17,0.13 -0.16,0.13 -0.16,0.13 -0.16,0.13 -0.17,0.13 L 9.89,49.42 9.73,49.55 9.57,49.68 9.4,49.81 9.24,49.94 9.08,50.07 8.92,50.2 8.75,50.34 8.59,50.47 8.43,50.6 8.26,50.73 8.1,50.86 7.94,50.99 7.78,51.12 7.61,51.25 7.45,51.38 7.29,51.51 7.13,51.64 6.96,51.77 6.8,51.9 6.64,52.03 6.47,52.16 6.31,52.29 6.15,52.42 5.99,52.55 5.82,52.68 5.66,52.81 5.5,52.94 5.34,53.07 5.17,53.2 5.01,53.33 4.85,53.46 4.69,53.59 4.52,53.72 4.36,53.85 4.2,53.98 4.03,54.11 3.87,54.24 3.71,54.37 3.55,54.5 3.38,54.63 3.22,54.76" /><path
       inkscape:connector-curvature="0"
       id="path34"
       style="fill:none;stroke:#000000;stroke-width:1.07000005;stroke-linecap:butt;stroke-linejoin:round;stroke-miterlimit:1;stroke-dasharray:none;stroke-opacity:1"
       d="m 19.33,41.88 0.16,0.13 0.16,0.13 0.17,0.13 0.16,0.13 0.16,0.13 0.16,0.13 0.17,0.13 0.16,0.13 0.16,0.13 0.16,0.13 0.17,0.13 0.16,0.13 0.16,0.13 0.16,0.13 0.17,0.13 0.16,0.13 0.16,0.13 0.17,0.13 0.16,0.13 0.16,0.13 0.16,0.13 0.17,0.13 0.16,0.13 0.16,0.13 0.16,0.13 0.17,0.13 0.16,0.13 0.16,0.13 0.17,0.13 0.16,0.13 0.16,0.13 0.16,0.13 0.17,0.13 0.16,0.13 0.16,0.13 0.16,0.13 0.17,0.13 0.16,0.13 0.16,0.13 0.16,0.13 0.17,0.13 0.16,0.13 0.16,0.13 0.17,0.13 0.16,0.13 0.16,0.13 0.16,0.13 0.17,0.13 0.16,0.13 0.16,0.13 0.16,0.13 0.17,0.13 0.16,0.13 0.16,0.13 0.16,0.13 0.17,0.13 0.16,0.13 0.16,0.13 0.17,0.13 0.16,0.13 0.16,0.13 0.16,0.13 0.17,0.13 0.16,0.13 0.16,0.14 0.16,0.13 0.17,0.13 0.16,0.13 0.16,0.13 0.17,0.13 0.16,0.13 0.16,0.13 0.16,0.13 0.17,0.13 0.16,0.13 0.16,0.13 0.16,0.13 0.17,0.13 0.16,0.13 0.16,0.13 0.16,0.13 0.17,0.13 0.16,0.13 0.16,0.13 0.17,0.13 0.16,0.13 0.16,0.13 0.16,0.13 0.17,0.13 0.16,0.13 0.16,0.13 0.16,0.13 0.17,0.13 0.16,0.13 0.16,0.13 0.17,0.13 0.16,0.13 0.16,0.13 0.16,0.13" /><path
       inkscape:connector-curvature="0"
       id="path36"
       style="fill:none;stroke:#000000;stroke-width:1.07000005;stroke-linecap:butt;stroke-linejoin:round;stroke-miterlimit:1;stroke-dasharray:none;stroke-opacity:1"
       d="m 3.22,54.76 v 0.13 0.13 0.13 0.13 0.13 0.13 0.13 0.13 0.13 0.13 0.13 0.13 0.13 0.13 0.13 0.13 0.13 0.13 0.13 0.13 0.13 0.13 0.13 0.13 0.13 0.13 0.13 0.13 0.13 0.13 0.13 0.13 0.14 0.13 0.13 0.13 0.13 0.13 0.13 0.13 0.13 0.13 0.13 0.13 0.13 0.13 0.13 0.13 0.13 0.13 0.13 0.13 0.13 0.13 0.13 0.13 0.13 0.13 0.13 0.13 0.13 0.13 0.13 0.13 0.13 0.13 0.13 0.13 0.13 0.13 0.13 0.13 0.13 0.13 0.13 0.13 0.13 0.13 0.13 0.13 0.13 0.13 0.13 0.13 0.13 0.13 0.13 0.13 0.13 0.13 0.13 0.13 0.13 0.13 0.13 0.13 0.13 0.13 0.13" /><path
       inkscape:connector-curvature="0"
       id="path38"
       style="fill:#04394b;fill-opacity:1;fill-rule:nonzero;stroke:#21667e;stroke-width:0.70999998;stroke-linecap:round;stroke-linejoin:round;stroke-miterlimit:10;stroke-dasharray:none;stroke-opacity:1"
       d="m 47.98,3.22 c 0,1.96 1.6,3.56 3.56,3.56 1.95,0 3.55,-1.6 3.55,-3.56 0,-1.95 -1.6,-3.55 -3.55,-3.55 -1.96,0 -3.56,1.6 -3.56,3.55" /><path
       inkscape:connector-curvature="0"
       id="path40"
       style="fill:#04394b;fill-opacity:1;fill-rule:nonzero;stroke:#21667e;stroke-width:0.70999998;stroke-linecap:round;stroke-linejoin:round;stroke-miterlimit:10;stroke-dasharray:none;stroke-opacity:1"
       d="m 31.88,16.11 c 0,1.95 1.6,3.55 3.55,3.55 1.96,0 3.56,-1.6 3.56,-3.55 0,-1.96 -1.6,-3.56 -3.56,-3.56 -1.95,0 -3.55,1.6 -3.55,3.56" /><path
       inkscape:connector-curvature="0"
       id="path42"
       style="fill:#04394b;fill-opacity:1;fill-rule:nonzero;stroke:#21667e;stroke-width:0.70999998;stroke-linecap:round;stroke-linejoin:round;stroke-miterlimit:10;stroke-dasharray:none;stroke-opacity:1"
       d="m 64.09,16.11 c 0,1.95 1.6,3.55 3.55,3.55 1.96,0 3.56,-1.6 3.56,-3.55 0,-1.96 -1.6,-3.56 -3.56,-3.56 -1.95,0 -3.55,1.6 -3.55,3.56" /><path
       inkscape:connector-curvature="0"
       id="path44"
       style="fill:#04394b;fill-opacity:1;fill-rule:nonzero;stroke:#21667e;stroke-width:0.70999998;stroke-linecap:round;stroke-linejoin:round;stroke-miterlimit:10;stroke-dasharray:none;stroke-opacity:1"
       d="m 31.88,28.99 c 0,1.96 1.6,3.56 3.55,3.56 1.96,0 3.56,-1.6 3.56,-3.56 0,-1.95 -1.6,-3.55 -3.56,-3.55 -1.95,0 -3.55,1.6 -3.55,3.55" /><path
       inkscape:connector-curvature="0"
       id="path46"
       style="fill:#04394b;fill-opacity:1;fill-rule:nonzero;stroke:#21667e;stroke-width:0.70999998;stroke-linecap:round;stroke-linejoin:round;stroke-miterlimit:10;stroke-dasharray:none;stroke-opacity:1"
       d="m 15.77,41.88 c 0,1.95 1.6,3.55 3.56,3.55 1.95,0 3.55,-1.6 3.55,-3.55 0,-1.96 -1.6,-3.56 -3.55,-3.56 -1.96,0 -3.56,1.6 -3.56,3.56" /><path
       inkscape:connector-curvature="0"
       id="path48"
       style="fill:#04394b;fill-opacity:1;fill-rule:nonzero;stroke:#21667e;stroke-width:0.70999998;stroke-linecap:round;stroke-linejoin:round;stroke-miterlimit:10;stroke-dasharray:none;stroke-opacity:1"
       d="m -0.33,54.76 c 0,1.96 1.6,3.56 3.55,3.56 1.96,0 3.56,-1.6 3.56,-3.56 0,-1.96 -1.6,-3.56 -3.56,-3.56 -1.95,0 -3.55,1.6 -3.55,3.56" /><path
       inkscape:connector-curvature="0"
       id="path50"
       style="fill:#04394b;fill-opacity:1;fill-rule:nonzero;stroke:#21667e;stroke-width:0.70999998;stroke-linecap:round;stroke-linejoin:round;stroke-miterlimit:10;stroke-dasharray:none;stroke-opacity:1"
       d="m 64.09,28.99 c 0,1.96 1.6,3.56 3.55,3.56 1.96,0 3.56,-1.6 3.56,-3.56 0,-1.95 -1.6,-3.55 -3.56,-3.55 -1.95,0 -3.55,1.6 -3.55,3.55" /><path
       inkscape:connector-curvature="0"
       id="path52"
       style="fill:#04394b;fill-opacity:1;fill-rule:nonzero;stroke:#21667e;stroke-width:0.70999998;stroke-linecap:round;stroke-linejoin:round;stroke-miterlimit:10;stroke-dasharray:none;stroke-opacity:1"
       d="m 47.98,41.88 c 0,1.95 1.6,3.55 3.56,3.55 1.95,0 3.55,-1.6 3.55,-3.55 0,-1.96 -1.6,-3.56 -3.55,-3.56 -1.96,0 -3.56,1.6 -3.56,3.56" /><path
       inkscape:connector-curvature="0"
       id="path54"
       style="fill:#04394b;fill-opacity:1;fill-rule:nonzero;stroke:#21667e;stroke-width:0.70999998;stroke-linecap:round;stroke-linejoin:round;stroke-miterlimit:10;stroke-dasharray:none;stroke-opacity:1"
       d="m 31.88,54.76 c 0,1.96 1.6,3.56 3.55,3.56 1.96,0 3.56,-1.6 3.56,-3.56 0,-1.96 -1.6,-3.56 -3.56,-3.56 -1.95,0 -3.55,1.6 -3.55,3.56" /><path
       inkscape:connector-curvature="0"
       id="path56"
       style="fill:#04394b;fill-opacity:1;fill-rule:nonzero;stroke:#21667e;stroke-width:0.70999998;stroke-linecap:round;stroke-linejoin:round;stroke-miterlimit:10;stroke-dasharray:none;stroke-opacity:1"
       d="m -0.33,67.64 c 0,1.96 1.6,3.56 3.55,3.56 1.96,0 3.56,-1.6 3.56,-3.56 0,-1.95 -1.6,-3.55 -3.56,-3.55 -1.95,0 -3.55,1.6 -3.55,3.55" /></g></g></g></svg>